{
  "accessors": [
    {
      "bufferView": 2,
      "componentType": 5126,
      "count": 1537,
      "max": [
        0.0461358018219471,
        -0.3543750047683716,
        0.6011769771575928
      ],
      "min": [
        -0.026492299512028694,
        -0.7166979908943176,
        -0.4212830066680908
      ],
      "type": "VEC3"
    },
    {
      "bufferView": 2,
      "byteOffset": 18444,
      "componentType": 5126,
      "count": 1537,
      "max": [
        1.0,
        0.9986068606376648,
        0.9998802542686462
      ],
      "min": [
        -1.0,
        -0.9969024658203125,
        -0.9998456239700317
      ],
      "type": "VEC3"
    },
    {
      "bufferView": 3,
      "componentType": 5126,
      "count": 1537,
      "max": [
        0.8229737281799316,
        0.9898472428321838,
        0.9980737566947937,
        1.0
      ],
      "min": [
        -0.9999906420707703,
        -0.9998918771743774,
        -0.9964527487754822,
        1.0
      ],
      "type": "VEC4"
    },
    {
      "bufferView": 1,
      "componentType": 5126,
      "count": 1537,
      "max": [
        0.9885089993476868,
        0.9897549748420715
      ],
      "min": [
        0.1637289971113205,
        0.3085379898548126
      ],
      "type": "VEC2"
    },
    {
      "bufferView": 0,
      "componentType": 5125,
      "count": 6000,
      "type": "SCALAR"
    },
    {
      "bufferView": 2,
      "byteOffset": 36888,
      "componentType": 5126,
      "count": 529,
      "max": [
        0.03836030140519142,
        -0.3641600012779236,
        1.0
      ],
      "min": [
        -0.054195601493120193,
        -0.6422550082206726,
        -0.2355930060148239
      ],
      "type": "VEC3"
    },
    {
      "bufferView": 2,
      "byteOffset": 43236,
      "componentType": 5126,
      "count": 529,
      "max": [
        1.0,
        1.0,
        1.0
      ],
      "min": [
        -1.0,
        -1.0,
        -1.0
      ],
      "type": "VEC3"
    },
    {
      "bufferView": 3,
      "byteOffset": 24592,
      "componentType": 5126,
      "count": 529,
      "max": [
        0.14074835181236267,
        1.0,
        1.0,
        1.0
      ],
      "min": [
        -1.0,
        -1.0,
        -1.0,
        1.0
      ],
      "type": "VEC4"
    },
    {
      "bufferView": 1,
      "byteOffset": 12296,
      "componentType": 5126,
      "count": 529,
      "max": [
        0.9790989756584167,
        0.9801729917526245
      ],
      "min": [
        0.2236279994249344,
        0.009999999776482582
      ],
      "type": "VEC2"
    },
    {
      "bufferView": 0,
      "byteOffset": 24000,
      "componentType": 5125,
      "count": 1290,
      "type": "SCALAR"
    },
    {
      "bufferView": 2,
      "byteOffset": 49584,
      "componentType": 5126,
      "count": 192,
      "max": [
        0.11289499700069427,
        -0.36998599767684937,
        0.5537440180778503
      ],
      "min": [
        -0.1418820023536682,
        -0.41816800832748413,
        -1.0
      ],
      "type": "VEC3"
    },
    {
      "bufferView": 2,
      "byteOffset": 51888,
      "componentType": 5126,
      "count": 192,
      "max": [
        1.0,
        1.0,
        1.0
      ],
      "min": [
        -1.0,
        -1.0,
        -1.0
      ],
      "type": "VEC3"
    },
    {
      "bufferView": 3,
      "byteOffset": 33056,
      "componentType": 5126,
      "count": 192,
      "max": [
        1.0,
        0.9999998807907104,
        1.0,
        1.0
      ],
      "min": [
        -1.0,
        -0.8086684942245483,
        -1.0,
        1.0
      ],
      "type": "VEC4"
    },
    {
      "bufferView": 1,
      "byteOffset": 16528,
      "componentType": 5126,
      "count": 192,
      "max": [
        0.9723920226097107,
        0.9899740219116211
      ],
      "min": [
        0.009999999776482582,
        0.2544809877872467
      ],
      "type": "VEC2"
    },
    {
      "bufferView": 0,
      "byteOffset": 29160,
      "componentType": 5125,
      "count": 396,
      "type": "SCALAR"
    },
    {
      "bufferView": 2,
      "byteOffset": 54192,
      "componentType": 5126,
      "count": 577,
      "max": [
        0.7172809839248657,
        0.5064799785614014,
        -0.4704410135746002
      ],
      "min": [
        -0.7172809839248657,
        0.45127299427986145,
        -0.527068018913269
      ],
      "type": "VEC3"
    },
    {
      "bufferView": 2,
      "byteOffset": 61116,
      "componentType": 5126,
      "count": 577,
      "max": [
        1.0,
        0.9749283790588379,
        1.0
      ],
      "min": [
        -1.0,
        -0.974928617477417,
        -1.0
      ],
      "type": "VEC3"
    },
    {
      "bufferView": 3,
      "byteOffset": 36128,
      "componentType": 5126,
      "count": 577,
      "max": [
        0.028961189091205597,
        1.0,
        0.9749279022216797,
        1.0
      ],
      "min": [
        -1.0,
        -1.0,
        -1.0,
        1.0
      ],
      "type": "VEC4"
    },
    {
      "bufferView": 1,
      "byteOffset": 18064,
      "componentType": 5126,
      "count": 577,
      "max": [
        0.9883880019187927,
        0.9897310137748718
      ],
      "min": [
        0.12962199747562408,
        0.21733400225639343
      ],
      "type": "VEC2"
    },
    {
      "bufferView": 0,
      "byteOffset": 30744,
      "componentType": 5125,
      "count": 1932,
      "type": "SCALAR"
    },
    {
      "bufferView": 2,
      "byteOffset": 68040,
      "componentType": 5126,
      "count": 2117,
      "max": [
        0.49251800775527954,
        0.7357569932937622,
        0.834613025188446
      ],
      "min": [
        -0.517212986946106,
        -0.7357569932937622,
        -0.7735440135002136
      ],
      "type": "VEC3"
    },
    {
      "bufferView": 2,
      "byteOffset": 93444,
      "componentType": 5126,
      "count": 2117,
      "max": [
        1.0,
        1.0,
        1.0
      ],
      "min": [
        -1.0,
        -1.0,
        -1.0
      ],
      "type": "VEC3"
    },
    {
      "bufferView": 3,
      "byteOffset": 45360,
      "componentType": 5126,
      "count": 2117,
      "max": [
        0.8090180158615112,
        1.0,
        1.0,
        1.0
      ],
      "min": [
        -1.0,
        -1.0,
        -1.0,
        1.0
      ],
      "type": "VEC4"
    },
    {
      "bufferView": 1,
      "byteOffset": 22680,
      "componentType": 5126,
      "count": 2117,
      "max": [
        0.9900000095367432,
        0.9887880086898804
      ],
      "min": [
        0.009999999776482582,
        0.009999999776482582
      ],
      "type": "VEC2"
    },
    {
      "bufferView": 0,
      "byteOffset": 38472,
      "componentType": 5125,
      "count": 4980,
      "type": "SCALAR"
    },
    {
      "bufferView": 2,
      "byteOffset": 118848,
      "componentType": 5126,
      "count": 144,
      "max": [
        0.47132301330566406,
        0.6246899962425232,
        -0.4427280128002167
      ],
      "min": [
        -0.4942049980163574,
        0.445466011762619,
        -0.5709249973297119
      ],
      "type": "VEC3"
    },
    {
      "bufferView": 2,
      "byteOffset": 120576,
      "componentType": 5126,
      "count": 144,
      "max": [
        1.0,
        1.0,
        1.0
      ],
      "min": [
        -1.0,
        -1.0,
        -1.0
      ],
      "type": "VEC3"
    },
    {
      "bufferView": 3,
      "byteOffset": 79232,
      "componentType": 5126,
      "count": 144,
      "max": [
        1.0,
        1.0,
        1.845299993874505e-05,
        1.0
      ],
      "min": [
        -1.0,
        -1.0,
        -0.016230804845690727,
        1.0
      ],
      "type": "VEC4"
    },
    {
      "bufferView": 1,
      "byteOffset": 39616,
      "componentType": 5126,
      "count": 144,
      "max": [
        0.9769899845123291,
        0.9842529892921448
      ],
      "min": [
        0.009999999776482582,
        0.4859279990196228
      ],
      "type": "VEC2"
    },
    {
      "bufferView": 0,
      "byteOffset": 58392,
      "componentType": 5125,
      "count": 312,
      "type": "SCALAR"
    },
    {
      "bufferView": 2,
      "byteOffset": 122304,
      "componentType": 5126,
      "count": 192,
      "max": [
        0.2567940056324005,
        -0.26229900121688843,
        0.9547590017318726
      ],
      "min": [
        -0.231672003865242,
        -0.3663240075111389,
        -0.9332510232925415
      ],
      "type": "VEC3"
    },
    {
      "bufferView": 2,
      "byteOffset": 124608,
      "componentType": 5126,
      "count": 192,
      "max": [
        0.9894368648529053,
        0.9669748544692993,
        0.9758180975914001
      ],
      "min": [
        -0.9894369840621948,
        -0.9758176207542419,
        -0.9758180975914001
      ],
      "type": "VEC3"
    },
    {
      "bufferView": 3,
      "byteOffset": 81536,
      "componentType": 5126,
      "count": 192,
      "max": [
        0.9979224801063538,
        0.4004909098148346,
        0.9992905259132385,
        1.0
      ],
      "min": [
        -0.9979226589202881,
        -0.40048515796661377,
        -0.9992906451225281,
        1.0
      ],
      "type": "VEC4"
    },
    {
      "bufferView": 1,
      "byteOffset": 40768,
      "componentType": 5126,
      "count": 192,
      "max": [
        0.9373850226402283,
        0.80035400390625
      ],
      "min": [
        0.009999999776482582,
        0.009999999776482582
      ],
      "type": "VEC2"
    },
    {
      "bufferView": 0,
      "byteOffset": 59640,
      "componentType": 5125,
      "count": 648,
      "type": "SCALAR"
    }
  ],
  "asset": {
    "extras": {
      "author": "carloakuma (https://sketchfab.com/carloakuma)",
      "license": "CC-BY-4.0 (http://creativecommons.org/licenses/by/4.0/)",
      "source": "https://sketchfab.com/3d-models/simple-bench-press-429192dc57f64b1fa9b3cdf4dada4420",
      "title": "Simple Bench Press"
    },
    "generator": "Sketchfab-15.27.0",
    "version": "2.0"
  },
  "bufferViews": [
    {
      "buffer": 0,
      "byteLength": 62232,
      "name": "floatBufferViews",
      "target": 34963
    },
    {
      "buffer": 0,
      "byteLength": 42304,
      "byteOffset": 62232,
      "byteStride": 8,
      "name": "floatBufferViews",
      "target": 34962
    },
    {
      "buffer": 0,
      "byteLength": 126912,
      "byteOffset": 104536,
      "byteStride": 12,
      "name": "floatBufferViews",
      "target": 34962
    },
    {
      "buffer": 0,
      "byteLength": 84608,
      "byteOffset": 231448,
      "byteStride": 16,
      "name": "floatBufferViews",
      "target": 34962
    }
  ],
  "buffers": [
    {
      "byteLength": 316056,
      "uri": "scene.bin"
    }
  ],
  "images": [
    {
      "uri": "textures/19___Default_baseColor.jpeg"
    },
    {
      "uri": "textures/19___Default_metallicRoughness.png"
    },
    {
      "uri": "textures/19___Default_normal.png"
    },
    {
      "uri": "textures/DefaultMaterial_baseColor.jpeg"
    },
    {
      "uri": "textures/DefaultMaterial_metallicRoughness.png"
    },
    {
      "uri": "textures/DefaultMaterial_normal.png"
    }
  ],
  "materials": [
    {
      "doubleSided": true,
      "name": "19___Default",
      "normalTexture": {
        "index": 2
      },
      "occlusionTexture": {
        "index": 1
      },
      "pbrMetallicRoughness": {
        "baseColorTexture": {
          "index": 0
        },
        "metallicRoughnessTexture": {
          "index": 1
        }
      }
    },
    {
      "doubleSided": true,
      "name": "DefaultMaterial",
      "normalTexture": {
        "index": 5
      },
      "pbrMetallicRoughness": {
        "baseColorTexture": {
          "index": 3
        },
        "metallicRoughnessTexture": {
          "index": 4
        }
      }
    }
  ],
  "meshes": [
    {
      "name": "defaultMaterial",
      "primitives": [
        {
          "attributes": {
            "NORMAL": 1,
            "POSITION": 0,
            "TANGENT": 2,
            "TEXCOORD_0": 3
          },
          "indices": 4,
          "material": 1,
          "mode": 4
        }
      ]
    },
    {
      "name": "defaultMaterial",
      "primitives": [
        {
          "attributes": {
            "NORMAL": 6,
            "POSITION": 5,
            "TANGENT": 7,
            "TEXCOORD_0": 8
          },
          "indices": 9,
          "material": 1,
          "mode": 4
        }
      ]
    },
    {
      "name": "defaultMaterial",
      "primitives": [
        {
          "attributes": {
            "NORMAL": 11,
            "POSITION": 10,
            "TANGENT": 12,
            "TEXCOORD_0": 13
          },
          "indices": 14,
          "material": 1,
          "mode": 4
        }
      ]
    },
    {
      "name": "defaultMaterial",
      "primitives": [
        {
          "attributes": {
            "NORMAL": 16,
            "POSITION": 15,
            "TANGENT": 17,
            "TEXCOORD_0": 18
          },
          "indices": 19,
          "material": 1,
          "mode": 4
        }
      ]
    },
    {
      "name": "defaultMaterial",
      "primitives": [
        {
          "attributes": {
            "NORMAL": 21,
            "POSITION": 20,
            "TANGENT": 22,
            "TEXCOORD_0": 23
          },
          "indices": 24,
          "material": 1,
          "mode": 4
        }
      ]
    },
    {
      "name": "defaultMaterial",
      "primitives": [
        {
          "attributes": {
            "NORMAL": 26,
            "POSITION": 25,
            "TANGENT": 27,
            "TEXCOORD_0": 28
          },
          "indices": 29,
          "material": 1,
          "mode": 4
        }
      ]
    },
    {
      "name": "defaultMaterial",
      "primitives": [
        {
          "attributes": {
            "NORMAL": 31,
            "POSITION": 30,
            "TANGENT": 32,
            "TEXCOORD_0": 33
          },
          "indices": 34,
          "material": 0,
          "mode": 4
        }
      ]
    }
  ],
  "nodes": [
    {
      "children": [
        1
      ],
      "matrix": [
        1.0,
        0.0,
        0.0,
        0.0,
        0.0,
        2.220446049250313e-16,
        -1.0,
        0.0,
        0.0,
        1.0,
        2.220446049250313e-16,
        0.0,
        0.0,
        0.0,
        0.0,
        1.0
      ],
      "name": "Sketchfab_model"
    },
    {
      "children": [
        2,
        4,
        6,
        8,
        10,
        12,
        14
      ],
      "matrix": [
        1.0,
        0.0,
        0.0,
        0.0,
        0.0,
        -4.371139006309477e-08,
        0.999999999999999,
        0.0,
        0.0,
        -0.999999999999999,
        -4.371139006309477e-08,
        0.0,
        0.0,
        0.0,
        0.0,
        1.0
      ],
      "name": "Collada visual scene group"
    },
    {
      "children": [
        3
      ],
      "name": "Stance"
    },
    {
      "mesh": 0,
      "name": "defaultMaterial"
    },
    {
      "children": [
        5
      ],
      "name": "Weight"
    },
    {
      "mesh": 1,
      "name": "defaultMaterial"
    },
    {
      "children": [
        7
      ],
      "name": "machine2"
    },
    {
      "mesh": 2,
      "name": "defaultMaterial"
    },
    {
      "children": [
        9
      ],
      "name": "Barbell"
    },
    {
      "mesh": 3,
      "name": "defaultMaterial"
    },
    {
      "children": [
        11
      ],
      "name": "Machine"
    },
    {
      "mesh": 4,
      "name": "defaultMaterial"
    },
    {
      "children": [
        13
      ],
      "name": "WeightHolder"
    },
    {
      "mesh": 5,
      "name": "defaultMaterial"
    },
    {
      "children": [
        15
      ],
      "name": "Bench"
    },
    {
      "mesh": 6,
      "name": "defaultMaterial"
    }
  ],
  "samplers": [
    {
      "magFilter": 9729,
      "minFilter": 9987,
      "wrapS": 10497,
      "wrapT": 10497
    }
  ],
  "scene": 0,
  "scenes": [
    {
      "name": "Sketchfab_Scene",
      "nodes": [
        0
      ]
    }
  ],
  "textures": [
    {
      "sampler": 0,
      "source": 0
    },
    {
      "sampler": 0,
      "source": 1
    },
    {
      "sampler": 0,
      "source": 2
    },
    {
      "sampler": 0,
      "source": 3
    },
    {
      "sampler": 0,
      "source": 4
    },
    {
      "sampler": 0,
      "source": 5
    }
  ]
}
